<?xml version="1.0" encoding="utf-8"?>
<!-- Generator: Adobe Illustrator 25.2.0, SVG Export Plug-In . SVG Version: 6.00 Build 0)  -->
<svg version="1.1" id="Layer_1" xmlns="http://www.w3.org/2000/svg" xmlns:xlink="http://www.w3.org/1999/xlink" x="0px" y="0px"
	 viewBox="0 0 512 512" style="enable-background:new 0 0 512 512;" xml:space="preserve">
<style type="text/css">
	.st0{fill:#00B9F2;}
	.st1{fill:#89182C;}
	.st2{fill:#95A3AB;}
	.st3{fill:#BC851C;}
	.st4{fill:#00A77E;}
	.st5{fill:#006DB4;}
	.st6{fill:#003C50;}
	.st7{fill:#001428;}
</style>
<g>
	<path class="st0" d="M437,110.3c-48.4-48.4-112.7-75-181-75S123.4,62,75,110.3c-5.9,5.9-5.9,15.4,0,21.2l45.4,45.4
		c5.9,5.9,15.4,5.9,21.2,0c30.6-30.6,71.2-47.4,114.3-47.4s83.8,16.8,114.3,47.4c2.8,2.8,6.6,4.4,10.6,4.4c6.5,0,10.3-4.1,10.6-4.4
		l45.4-45.4C442.8,125.7,442.8,116.2,437,110.3L437,110.3z"/>
	<path class="st1" d="M437,110.3c-48.4-48.4-112.7-75-181-75v94.3c43.2,0,83.8,16.8,114.3,47.4c2.8,2.8,6.6,4.4,10.6,4.4
		c6.5,0,10.3-4.1,10.6-4.4l45.4-45.4C442.8,125.7,442.8,116.2,437,110.3L437,110.3z"/>
	<path class="st2" d="M141.7,405.6c-12.9-12.9-47.2-51.1-47.4-114.4c0-43.2,16.8-83.8,47.4-114.3L75,110.3C26.6,158.7,0,223,0,291.3
		s26.6,132.6,75,181c2.9,2.9,6.8,4.4,10.6,4.4s7.7-1.5,10.6-4.4l45.4-45.4C147.5,421,147.5,411.5,141.7,405.6L141.7,405.6z"/>
	<path class="st3" d="M370.3,405.6c12.9-12.9,47.2-51.1,47.4-114.4c0-43.2-16.8-83.8-47.4-114.3l66.6-66.7
		c48.4,48.4,75,112.6,75,181s-26.6,132.6-75,181c-2.9,2.9-6.8,4.4-10.6,4.4s-7.7-1.5-10.6-4.4l-45.4-45.4
		C364.5,421,364.5,411.5,370.3,405.6L370.3,405.6z"/>
	<path class="st4" d="M94.3,291.3c0-43.2,16.8-83.8,47.4-114.3L75,110.3C26.6,158.7,0,223,0,291.3L94.3,291.3z"/>
	<path class="st5" d="M370.3,405.6c12.9-12.9,47.2-51.1,47.4-114.4l94.3,0c0,68.3-26.6,132.6-75,181c-2.9,2.9-6.8,4.4-10.6,4.4
		s-7.7-1.5-10.6-4.4l-45.4-45.4C364.5,421,364.5,411.5,370.3,405.6L370.3,405.6z"/>
	<path class="st6" d="M222.7,258c-18.4,18.4-18.4,48.3,0,66.7c23.2,23.2,137.3,96.1,150.2,104.3c5.9,3.8,13.7,2.9,18.7-2
		c5-5,5.8-12.7,2-18.7c-8.2-12.9-81.1-127-104.3-150.2C271,239.6,241.1,239.6,222.7,258L222.7,258z"/>
	<path class="st7" d="M222.7,258l168.9,168.9c5-5,5.8-12.7,2-18.7c-8.2-12.9-81.1-127-104.3-150.2C271,239.6,241.1,239.6,222.7,258
		L222.7,258z"/>
</g>
</svg>
